<?xml version="1.0" standalone="no"?>
<!DOCTYPE svg PUBLIC "-//W3C//DTD SVG 20010904//EN"
 "http://www.w3.org/TR/2001/REC-SVG-20010904/DTD/svg10.dtd">
<svg version="1.0" xmlns="http://www.w3.org/2000/svg"
 width="64.000000pt" height="64.000000pt" viewBox="0 0 64.000000 64.000000"
 preserveAspectRatio="xMidYMid meet">

<g transform="translate(0.000000,64.000000) scale(0.100000,-0.100000)"
fill="#000000" stroke="none">
<path d="M290 581 c0 -27 -14 -33 -36 -16 -27 20 -37 18 -31 -5 6 -23 -3 -26
-21 -8 -7 7 -12 9 -12 4 0 -6 18 -45 25 -54 1 -1 19 5 41 14 26 11 57 15 96
12 42 -3 58 -1 58 8 0 7 3 21 6 31 6 15 4 16 -7 6 -19 -19 -28 -16 -24 7 5 27
-10 25 -30 -2 l-16 -23 -19 23 c-22 27 -30 28 -30 3z"/>
<path d="M258 503 c-20 -5 -23 -14 -8 -29 7 -7 4 -10 -12 -10 -18 1 -24 -5
-26 -27 -4 -31 -22 -27 -22 6 -1 20 -4 18 -36 -17 -23 -24 -32 -41 -25 -45 7
-5 5 -19 -8 -46 -11 -22 -22 -50 -26 -63 -6 -20 -4 -22 17 -17 22 6 23 4 24
-60 2 -86 13 -97 50 -51 16 20 33 36 38 36 4 0 6 -29 4 -65 -4 -64 -4 -65 26
-75 39 -14 57 -13 112 6 39 13 48 13 56 2 12 -18 65 44 80 94 6 22 16 34 23
32 18 -7 26 60 14 116 -15 71 -29 85 -86 85 -40 0 -50 4 -58 22 -10 24 -71 41
-88 24 -7 -7 -6 -12 4 -14 55 -16 73 -23 76 -33 3 -7 -11 -11 -38 -9 -30 2
-48 10 -65 29 -21 22 -22 27 -10 32 9 3 16 12 16 19 0 7 14 18 31 24 24 8 37
7 59 -4 21 -11 29 -12 32 -3 3 8 15 5 35 -10 l31 -22 -5 21 c-7 26 -64 63 -74
48 -5 -8 -9 -8 -13 0 -7 11 -93 13 -128 4z m192 -191 c0 -16 -46 -52 -67 -52
-9 0 -37 50 -31 55 2 1 16 9 33 18 34 17 65 7 65 -21z m50 -13 c0 -16 -4 -29
-10 -29 -12 0 -24 45 -15 60 11 18 25 1 25 -31z m-24 -53 c3 -8 0 -25 -7 -38
-11 -20 -14 -20 -17 -5 -4 19 -17 22 -27 7 -5 -8 -11 -7 -21 1 -19 16 -18 22
9 35 32 16 57 16 63 0z"/>
<path d="M447 404 c8 -22 33 -25 33 -4 0 12 -6 18 -19 17 -10 0 -17 -7 -14
-13z"/>
</g>
</svg>
